<svg width="114" height="20" viewBox="0 0 114 20" fill="none" xmlns="http://www.w3.org/2000/svg">
<path d="M11.45 3.8875C11.375 4.0125 11.2917 4.10833 11.2 4.175C11.1167 4.23333 11.0125 4.2625 10.8875 4.2625C10.7458 4.2625 10.5792 4.19167 10.3875 4.05C10.1958 3.90833 9.95417 3.75417 9.6625 3.5875C9.37917 3.4125 9.03333 3.25417 8.625 3.1125C8.225 2.97083 7.7375 2.9 7.1625 2.9C6.62083 2.9 6.14167 2.975 5.725 3.125C5.31667 3.26667 4.97083 3.4625 4.6875 3.7125C4.4125 3.9625 4.20417 4.25833 4.0625 4.6C3.92083 4.93333 3.85 5.29583 3.85 5.6875C3.85 6.1875 3.97083 6.60417 4.2125 6.9375C4.4625 7.2625 4.7875 7.54167 5.1875 7.775C5.59583 8.00833 6.05417 8.2125 6.5625 8.3875C7.07917 8.55417 7.60417 8.72917 8.1375 8.9125C8.67917 9.09583 9.20417 9.30417 9.7125 9.5375C10.2292 9.7625 10.6875 10.05 11.0875 10.4C11.4958 10.75 11.8208 11.1792 12.0625 11.6875C12.3125 12.1958 12.4375 12.8208 12.4375 13.5625C12.4375 14.3458 12.3042 15.0833 12.0375 15.775C11.7708 16.4583 11.3792 17.0542 10.8625 17.5625C10.3542 18.0708 9.725 18.4708 8.975 18.7625C8.23333 19.0542 7.3875 19.2 6.4375 19.2C5.27083 19.2 4.2125 18.9917 3.2625 18.575C2.3125 18.15 1.5 17.5792 0.825 16.8625L1.525 15.7125C1.59167 15.6208 1.67083 15.5458 1.7625 15.4875C1.8625 15.4208 1.97083 15.3875 2.0875 15.3875C2.19583 15.3875 2.31667 15.4333 2.45 15.525C2.59167 15.6083 2.75 15.7167 2.925 15.85C3.1 15.9833 3.3 16.1292 3.525 16.2875C3.75 16.4458 4.00417 16.5917 4.2875 16.725C4.57917 16.8583 4.90833 16.9708 5.275 17.0625C5.64167 17.1458 6.05417 17.1875 6.5125 17.1875C7.0875 17.1875 7.6 17.1083 8.05 16.95C8.5 16.7917 8.87917 16.5708 9.1875 16.2875C9.50417 15.9958 9.74583 15.65 9.9125 15.25C10.0792 14.85 10.1625 14.4042 10.1625 13.9125C10.1625 13.3708 10.0375 12.9292 9.7875 12.5875C9.54583 12.2375 9.225 11.9458 8.825 11.7125C8.425 11.4792 7.96667 11.2833 7.45 11.125C6.93333 10.9583 6.40833 10.7917 5.875 10.625C5.34167 10.45 4.81667 10.25 4.3 10.025C3.78333 9.8 3.325 9.50833 2.925 9.15C2.525 8.79167 2.2 8.34583 1.95 7.8125C1.70833 7.27083 1.5875 6.60417 1.5875 5.8125C1.5875 5.17917 1.70833 4.56667 1.95 3.975C2.2 3.38333 2.55833 2.85833 3.025 2.4C3.5 1.94167 4.07917 1.575 4.7625 1.3C5.45417 1.025 6.24583 0.887498 7.1375 0.887498C8.1375 0.887498 9.04583 1.04583 9.8625 1.3625C10.6875 1.67917 11.4125 2.1375 12.0375 2.7375L11.45 3.8875ZM17.5367 19H15.1117V1.0875H17.5367V19ZM35.8811 1.0875V19H34.6686C34.4769 19 34.3144 18.9667 34.1811 18.9C34.0561 18.8333 33.9311 18.7208 33.8061 18.5625L23.4436 5.0625C23.4602 5.27083 23.4727 5.475 23.4811 5.675C23.4894 5.875 23.4936 6.0625 23.4936 6.2375V19H21.3686V1.0875H22.6186C22.7269 1.0875 22.8186 1.09583 22.8936 1.1125C22.9686 1.12083 23.0352 1.14167 23.0936 1.175C23.1519 1.2 23.2102 1.24167 23.2686 1.3C23.3269 1.35 23.3894 1.41667 23.4561 1.5L33.8186 14.9875C33.8019 14.7708 33.7852 14.5625 33.7686 14.3625C33.7602 14.1542 33.7561 13.9583 33.7561 13.775V1.0875H35.8811ZM54.2604 10.3875V17.2625C53.3604 17.9125 52.3979 18.4 51.3729 18.725C50.3562 19.0417 49.2395 19.2 48.0229 19.2C46.5812 19.2 45.2812 18.9792 44.1229 18.5375C42.9645 18.0875 41.9729 17.4625 41.1479 16.6625C40.3312 15.8542 39.702 14.8875 39.2604 13.7625C38.8187 12.6375 38.5979 11.4 38.5979 10.05C38.5979 8.68333 38.8104 7.4375 39.2354 6.3125C39.6687 5.1875 40.2812 4.225 41.0729 3.425C41.8645 2.61667 42.827 1.99167 43.9604 1.55C45.0937 1.10833 46.3604 0.887498 47.7604 0.887498C48.4687 0.887498 49.127 0.941665 49.7354 1.05C50.3437 1.15 50.9062 1.3 51.4229 1.5C51.9395 1.69167 52.4187 1.92917 52.8604 2.2125C53.302 2.4875 53.7145 2.8 54.0979 3.15L53.4104 4.25C53.302 4.41667 53.1604 4.525 52.9854 4.575C52.8187 4.61667 52.6312 4.575 52.4229 4.45C52.2229 4.33333 51.9937 4.19167 51.7354 4.025C51.477 3.85833 51.1604 3.7 50.7854 3.55C50.4187 3.39167 49.9812 3.25833 49.4729 3.15C48.9729 3.04167 48.377 2.9875 47.6854 2.9875C46.677 2.9875 45.7645 3.15417 44.9479 3.4875C44.1312 3.8125 43.4354 4.28333 42.8604 4.9C42.2854 5.50833 41.8437 6.25 41.5354 7.125C41.227 7.99167 41.0729 8.96667 41.0729 10.05C41.0729 11.175 41.2312 12.1833 41.5479 13.075C41.8729 13.9583 42.3312 14.7125 42.9229 15.3375C43.5229 15.9542 44.2479 16.425 45.0979 16.75C45.9479 17.075 46.902 17.2375 47.9604 17.2375C48.7937 17.2375 49.5312 17.1458 50.1729 16.9625C50.8229 16.7708 51.4562 16.5083 52.0729 16.175V12.2375H49.2854C49.127 12.2375 48.9979 12.1917 48.8979 12.1C48.8062 12.0083 48.7604 11.8958 48.7604 11.7625V10.3875H54.2604ZM73.7721 10.05C73.7721 11.3917 73.5596 12.625 73.1346 13.75C72.7096 14.8667 72.1096 15.8292 71.3346 16.6375C70.5596 17.4458 69.6262 18.075 68.5346 18.525C67.4512 18.9667 66.2512 19.1875 64.9346 19.1875C63.6179 19.1875 62.4179 18.9667 61.3346 18.525C60.2512 18.075 59.3221 17.4458 58.5471 16.6375C57.7721 15.8292 57.1721 14.8667 56.7471 13.75C56.3221 12.625 56.1096 11.3917 56.1096 10.05C56.1096 8.70833 56.3221 7.47917 56.7471 6.3625C57.1721 5.2375 57.7721 4.27083 58.5471 3.4625C59.3221 2.64583 60.2512 2.0125 61.3346 1.5625C62.4179 1.1125 63.6179 0.887498 64.9346 0.887498C66.2512 0.887498 67.4512 1.1125 68.5346 1.5625C69.6262 2.0125 70.5596 2.64583 71.3346 3.4625C72.1096 4.27083 72.7096 5.2375 73.1346 6.3625C73.5596 7.47917 73.7721 8.70833 73.7721 10.05ZM71.2846 10.05C71.2846 8.95 71.1346 7.9625 70.8346 7.0875C70.5346 6.2125 70.1096 5.475 69.5596 4.875C69.0096 4.26667 68.3429 3.8 67.5596 3.475C66.7762 3.15 65.9012 2.9875 64.9346 2.9875C63.9762 2.9875 63.1054 3.15 62.3221 3.475C61.5387 3.8 60.8679 4.26667 60.3096 4.875C59.7596 5.475 59.3346 6.2125 59.0346 7.0875C58.7346 7.9625 58.5846 8.95 58.5846 10.05C58.5846 11.15 58.7346 12.1375 59.0346 13.0125C59.3346 13.8792 59.7596 14.6167 60.3096 15.225C60.8679 15.825 61.5387 16.2875 62.3221 16.6125C63.1054 16.9292 63.9762 17.0875 64.9346 17.0875C65.9012 17.0875 66.7762 16.9292 67.5596 16.6125C68.3429 16.2875 69.0096 15.825 69.5596 15.225C70.1096 14.6167 70.5346 13.8792 70.8346 13.0125C71.1346 12.1375 71.2846 11.15 71.2846 10.05ZM86.6541 16.9625V19H76.4916V1.0875H78.9041V16.9625H86.6541ZM104.303 10.05C104.303 11.3917 104.091 12.625 103.666 13.75C103.241 14.8667 102.641 15.8292 101.866 16.6375C101.091 17.4458 100.157 18.075 99.0658 18.525C97.9825 18.9667 96.7825 19.1875 95.4658 19.1875C94.1492 19.1875 92.9492 18.9667 91.8658 18.525C90.7825 18.075 89.8533 17.4458 89.0783 16.6375C88.3033 15.8292 87.7033 14.8667 87.2783 13.75C86.8533 12.625 86.6408 11.3917 86.6408 10.05C86.6408 8.70833 86.8533 7.47917 87.2783 6.3625C87.7033 5.2375 88.3033 4.27083 89.0783 3.4625C89.8533 2.64583 90.7825 2.0125 91.8658 1.5625C92.9492 1.1125 94.1492 0.887498 95.4658 0.887498C96.7825 0.887498 97.9825 1.1125 99.0658 1.5625C100.157 2.0125 101.091 2.64583 101.866 3.4625C102.641 4.27083 103.241 5.2375 103.666 6.3625C104.091 7.47917 104.303 8.70833 104.303 10.05ZM101.816 10.05C101.816 8.95 101.666 7.9625 101.366 7.0875C101.066 6.2125 100.641 5.475 100.091 4.875C99.5408 4.26667 98.8742 3.8 98.0908 3.475C97.3075 3.15 96.4325 2.9875 95.4658 2.9875C94.5075 2.9875 93.6367 3.15 92.8533 3.475C92.07 3.8 91.3992 4.26667 90.8408 4.875C90.2908 5.475 89.8658 6.2125 89.5658 7.0875C89.2658 7.9625 89.1158 8.95 89.1158 10.05C89.1158 11.15 89.2658 12.1375 89.5658 13.0125C89.8658 13.8792 90.2908 14.6167 90.8408 15.225C91.3992 15.825 92.07 16.2875 92.8533 16.6125C93.6367 16.9292 94.5075 17.0875 95.4658 17.0875C96.4325 17.0875 97.3075 16.9292 98.0908 16.6125C98.8742 16.2875 99.5408 15.825 100.091 15.225C100.641 14.6167 101.066 13.8792 101.366 13.0125C101.666 12.1375 101.816 11.15 101.816 10.05Z" fill="white"/>
<path d="M113.823 5.7625L113.273 6.7L111.11 5.45C110.96 5.35833 110.827 5.26667 110.71 5.175C110.594 5.08333 110.49 4.96667 110.398 4.825C110.531 5.1 110.598 5.40417 110.598 5.7375V8.2125H109.498V5.75C109.498 5.58333 109.506 5.42917 109.523 5.2875C109.548 5.14583 109.594 5.00833 109.66 4.875C109.569 4.99167 109.469 5.09583 109.36 5.1875C109.252 5.27917 109.127 5.36667 108.985 5.45L106.835 6.6875L106.285 5.75L108.435 4.5C108.752 4.30833 109.069 4.20833 109.385 4.2C109.219 4.18333 109.056 4.15417 108.898 4.1125C108.748 4.0625 108.594 3.9875 108.435 3.8875L106.273 2.625L106.823 1.6875L108.985 2.9375C109.135 3.02917 109.269 3.125 109.385 3.225C109.502 3.325 109.606 3.44583 109.698 3.5875C109.565 3.29583 109.498 2.98333 109.498 2.65V0.174999H110.598V2.6375C110.598 2.80417 110.585 2.9625 110.56 3.1125C110.544 3.25417 110.502 3.39167 110.435 3.525C110.527 3.40833 110.627 3.30417 110.735 3.2125C110.844 3.12083 110.969 3.02917 111.11 2.9375L113.26 1.7L113.81 2.6375L111.66 3.8875C111.519 3.97917 111.377 4.05 111.235 4.1C111.094 4.15 110.944 4.18333 110.785 4.2C110.944 4.21667 111.094 4.25 111.235 4.3C111.377 4.34167 111.519 4.40833 111.66 4.5L113.823 5.7625Z" fill="#F06C64"/>
</svg>
