<svg width="128" height="24" viewBox="0 0 128 24" fill="none" xmlns="http://www.w3.org/2000/svg">
<path d="M14.665 14.645L12.64 8.66C12.49 8.28 12.33 7.835 12.16 7.325C11.99 6.805 11.82 6.245 11.65 5.645C11.5 6.255 11.34 6.82 11.17 7.34C11 7.86 10.84 8.31 10.69 8.69L8.68 14.645H14.665ZM22.72 23H18.79C18.35 23 17.995 22.9 17.725 22.7C17.455 22.49 17.25 22.225 17.11 21.905L15.82 18.095H7.51L6.22 21.905C6.11 22.185 5.91 22.44 5.62 22.67C5.34 22.89 4.99 23 4.57 23H0.61L9.07 1.145H14.26L22.72 23ZM28.5531 18.77C28.9031 19.15 29.2831 19.42 29.6931 19.58C30.1031 19.74 30.5181 19.82 30.9381 19.82C31.3781 19.82 31.7831 19.74 32.1531 19.58C32.5231 19.41 32.8381 19.14 33.0981 18.77C33.3681 18.39 33.5781 17.895 33.7281 17.285C33.8781 16.665 33.9531 15.905 33.9531 15.005C33.9531 14.225 33.8931 13.565 33.7731 13.025C33.6631 12.475 33.4931 12.03 33.2631 11.69C33.0431 11.34 32.7631 11.09 32.4231 10.94C32.0931 10.78 31.7131 10.7 31.2831 10.7C30.7131 10.7 30.2181 10.825 29.7981 11.075C29.3781 11.325 28.9631 11.69 28.5531 12.17V18.77ZM28.5531 9.095C29.1531 8.525 29.8081 8.07 30.5181 7.73C31.2381 7.38 32.0381 7.205 32.9181 7.205C33.7981 7.205 34.5981 7.385 35.3181 7.745C36.0381 8.105 36.6531 8.62 37.1631 9.29C37.6731 9.95 38.0631 10.75 38.3331 11.69C38.6131 12.63 38.7531 13.68 38.7531 14.84C38.7531 16.1 38.5931 17.245 38.2731 18.275C37.9531 19.305 37.4981 20.19 36.9081 20.93C36.3281 21.66 35.6331 22.23 34.8231 22.64C34.0131 23.04 33.1181 23.24 32.1381 23.24C31.6681 23.24 31.2481 23.195 30.8781 23.105C30.5081 23.015 30.1681 22.89 29.8581 22.73C29.5481 22.56 29.2631 22.36 29.0031 22.13C28.7531 21.9 28.5081 21.65 28.2681 21.38L28.1031 22.16C28.0231 22.48 27.8931 22.7 27.7131 22.82C27.5331 22.94 27.2931 23 26.9931 23H23.9031V0.544999H28.5531V9.095ZM48.2997 7.205C49.4797 7.205 50.5547 7.39 51.5247 7.76C52.4947 8.13 53.3247 8.66 54.0147 9.35C54.7147 10.04 55.2547 10.88 55.6347 11.87C56.0247 12.85 56.2197 13.955 56.2197 15.185C56.2197 16.425 56.0247 17.545 55.6347 18.545C55.2547 19.535 54.7147 20.38 54.0147 21.08C53.3247 21.77 52.4947 22.305 51.5247 22.685C50.5547 23.055 49.4797 23.24 48.2997 23.24C47.1097 23.24 46.0247 23.055 45.0447 22.685C44.0747 22.305 43.2347 21.77 42.5247 21.08C41.8247 20.38 41.2797 19.535 40.8897 18.545C40.5097 17.545 40.3197 16.425 40.3197 15.185C40.3197 13.955 40.5097 12.85 40.8897 11.87C41.2797 10.88 41.8247 10.04 42.5247 9.35C43.2347 8.66 44.0747 8.13 45.0447 7.76C46.0247 7.39 47.1097 7.205 48.2997 7.205ZM48.2997 19.79C49.3697 19.79 50.1547 19.415 50.6547 18.665C51.1647 17.905 51.4197 16.755 51.4197 15.215C51.4197 13.675 51.1647 12.53 50.6547 11.78C50.1547 11.03 49.3697 10.655 48.2997 10.655C47.1997 10.655 46.3947 11.03 45.8847 11.78C45.3747 12.53 45.1197 13.675 45.1197 15.215C45.1197 16.755 45.3747 17.905 45.8847 18.665C46.3947 19.415 47.1997 19.79 48.2997 19.79ZM72.5113 7.445V23H69.6313C69.0513 23 68.6713 22.74 68.4913 22.22L68.2213 21.32C67.9213 21.61 67.6113 21.875 67.2913 22.115C66.9713 22.345 66.6263 22.545 66.2563 22.715C65.8963 22.875 65.5013 23 65.0713 23.09C64.6513 23.19 64.1913 23.24 63.6913 23.24C62.8413 23.24 62.0863 23.095 61.4263 22.805C60.7763 22.505 60.2263 22.09 59.7763 21.56C59.3263 21.03 58.9863 20.405 58.7563 19.685C58.5263 18.965 58.4113 18.175 58.4113 17.315V7.445H63.0613V17.315C63.0613 18.085 63.2363 18.68 63.5863 19.1C63.9363 19.52 64.4513 19.73 65.1313 19.73C65.6413 19.73 66.1163 19.625 66.5563 19.415C67.0063 19.195 67.4413 18.9 67.8613 18.53V7.445H72.5113ZM81.2357 23.24C80.4957 23.24 79.8407 23.135 79.2707 22.925C78.7107 22.705 78.2357 22.4 77.8457 22.01C77.4657 21.61 77.1757 21.13 76.9757 20.57C76.7757 20.01 76.6757 19.385 76.6757 18.695V10.655H75.3557C75.1157 10.655 74.9107 10.58 74.7407 10.43C74.5707 10.27 74.4857 10.04 74.4857 9.74V7.925L76.9607 7.445L77.8757 3.65C77.9957 3.17 78.3357 2.93 78.8957 2.93H81.3257V7.475H85.1807V10.655H81.3257V18.38C81.3257 18.74 81.4107 19.04 81.5807 19.28C81.7607 19.51 82.0157 19.625 82.3457 19.625C82.5157 19.625 82.6557 19.61 82.7657 19.58C82.8857 19.54 82.9857 19.5 83.0657 19.46C83.1557 19.41 83.2357 19.37 83.3057 19.34C83.3857 19.3 83.4757 19.28 83.5757 19.28C83.7157 19.28 83.8257 19.315 83.9057 19.385C83.9957 19.445 84.0857 19.545 84.1757 19.685L85.5857 21.89C84.9857 22.34 84.3107 22.68 83.5607 22.91C82.8107 23.13 82.0357 23.24 81.2357 23.24ZM103.788 18.995C104.468 18.995 105.073 18.885 105.603 18.665C106.143 18.435 106.598 18.11 106.968 17.69C107.338 17.27 107.618 16.76 107.808 16.16C108.008 15.55 108.108 14.86 108.108 14.09V1.145H113.178V14.09C113.178 15.43 112.958 16.66 112.518 17.78C112.088 18.9 111.468 19.865 110.658 20.675C109.848 21.485 108.863 22.115 107.703 22.565C106.543 23.015 105.238 23.24 103.788 23.24C102.328 23.24 101.018 23.015 99.8577 22.565C98.6977 22.115 97.7127 21.485 96.9027 20.675C96.0927 19.865 95.4727 18.9 95.0427 17.78C94.6127 16.66 94.3977 15.43 94.3977 14.09V1.145H99.4677V14.075C99.4677 14.845 99.5627 15.535 99.7527 16.145C99.9527 16.745 100.238 17.26 100.608 17.69C100.978 18.11 101.428 18.435 101.958 18.665C102.498 18.885 103.108 18.995 103.788 18.995ZM125.898 10.85C125.778 11.04 125.648 11.175 125.508 11.255C125.378 11.335 125.208 11.375 124.998 11.375C124.778 11.375 124.558 11.33 124.338 11.24C124.118 11.14 123.878 11.035 123.618 10.925C123.368 10.815 123.083 10.715 122.763 10.625C122.443 10.525 122.078 10.475 121.668 10.475C121.078 10.475 120.623 10.59 120.303 10.82C119.993 11.04 119.838 11.35 119.838 11.75C119.838 12.04 119.938 12.28 120.138 12.47C120.348 12.66 120.623 12.83 120.963 12.98C121.303 13.12 121.688 13.255 122.118 13.385C122.548 13.515 122.988 13.66 123.438 13.82C123.888 13.98 124.328 14.17 124.758 14.39C125.188 14.6 125.573 14.865 125.913 15.185C126.253 15.495 126.523 15.875 126.723 16.325C126.933 16.775 127.038 17.315 127.038 17.945C127.038 18.715 126.898 19.425 126.618 20.075C126.338 20.725 125.918 21.285 125.358 21.755C124.808 22.225 124.123 22.59 123.303 22.85C122.493 23.11 121.558 23.24 120.498 23.24C119.968 23.24 119.438 23.19 118.908 23.09C118.378 22.99 117.863 22.855 117.363 22.685C116.873 22.515 116.418 22.315 115.998 22.085C115.578 21.845 115.218 21.59 114.918 21.32L115.998 19.61C116.118 19.41 116.268 19.255 116.448 19.145C116.638 19.025 116.878 18.965 117.168 18.965C117.438 18.965 117.678 19.025 117.888 19.145C118.108 19.265 118.343 19.395 118.593 19.535C118.843 19.675 119.133 19.805 119.463 19.925C119.803 20.045 120.228 20.105 120.738 20.105C121.098 20.105 121.403 20.07 121.653 20C121.903 19.92 122.103 19.815 122.253 19.685C122.403 19.555 122.513 19.41 122.583 19.25C122.653 19.09 122.688 18.925 122.688 18.755C122.688 18.445 122.583 18.19 122.373 17.99C122.163 17.79 121.888 17.62 121.548 17.48C121.208 17.33 120.818 17.195 120.378 17.075C119.948 16.945 119.508 16.8 119.058 16.64C118.608 16.48 118.163 16.29 117.723 16.07C117.293 15.84 116.908 15.555 116.568 15.215C116.228 14.865 115.953 14.44 115.743 13.94C115.533 13.44 115.427 12.835 115.427 12.125C115.427 11.465 115.553 10.84 115.803 10.25C116.063 9.65 116.448 9.125 116.958 8.675C117.468 8.225 118.108 7.87 118.878 7.61C119.648 7.34 120.548 7.205 121.578 7.205C122.138 7.205 122.678 7.255 123.198 7.355C123.728 7.455 124.223 7.595 124.683 7.775C125.143 7.955 125.563 8.17 125.943 8.42C126.323 8.66 126.658 8.925 126.948 9.215L125.898 10.85Z" fill="#666D89"/>
</svg>
