<svg width="171" height="24" viewBox="0 0 171 24" fill="none" xmlns="http://www.w3.org/2000/svg">
<path d="M23.565 12.065C23.565 13.645 23.29 15.115 22.74 16.475C22.2 17.835 21.435 19.02 20.445 20.03C19.455 21.03 18.26 21.815 16.86 22.385C15.47 22.955 13.925 23.24 12.225 23.24C10.525 23.24 8.975 22.955 7.575 22.385C6.175 21.815 4.975 21.03 3.975 20.03C2.985 19.02 2.215 17.835 1.665 16.475C1.125 15.115 0.855 13.645 0.855 12.065C0.855 10.485 1.125 9.015 1.665 7.655C2.215 6.295 2.985 5.115 3.975 4.115C4.975 3.115 6.175 2.33 7.575 1.76C8.975 1.19 10.525 0.904999 12.225 0.904999C13.925 0.904999 15.47 1.195 16.86 1.775C18.26 2.345 19.455 3.13 20.445 4.13C21.435 5.13 22.2 6.31 22.74 7.67C23.29 9.03 23.565 10.495 23.565 12.065ZM18.375 12.065C18.375 10.985 18.235 10.015 17.955 9.155C17.675 8.285 17.27 7.55 16.74 6.95C16.22 6.35 15.58 5.89 14.82 5.57C14.06 5.25 13.195 5.09 12.225 5.09C11.245 5.09 10.37 5.25 9.6 5.57C8.84 5.89 8.195 6.35 7.665 6.95C7.145 7.55 6.745 8.285 6.465 9.155C6.185 10.015 6.045 10.985 6.045 12.065C6.045 13.155 6.185 14.135 6.465 15.005C6.745 15.865 7.145 16.595 7.665 17.195C8.195 17.795 8.84 18.255 9.6 18.575C10.37 18.885 11.245 19.04 12.225 19.04C13.195 19.04 14.06 18.885 14.82 18.575C15.58 18.255 16.22 17.795 16.74 17.195C17.27 16.595 17.675 15.865 17.955 15.005C18.235 14.135 18.375 13.155 18.375 12.065ZM39.7828 7.445V23H36.9028C36.3228 23 35.9428 22.74 35.7628 22.22L35.4928 21.32C35.1928 21.61 34.8828 21.875 34.5628 22.115C34.2428 22.345 33.8978 22.545 33.5278 22.715C33.1678 22.875 32.7728 23 32.3428 23.09C31.9228 23.19 31.4628 23.24 30.9628 23.24C30.1128 23.24 29.3578 23.095 28.6978 22.805C28.0478 22.505 27.4978 22.09 27.0478 21.56C26.5978 21.03 26.2578 20.405 26.0278 19.685C25.7978 18.965 25.6828 18.175 25.6828 17.315V7.445H30.3328V17.315C30.3328 18.085 30.5078 18.68 30.8578 19.1C31.2078 19.52 31.7228 19.73 32.4028 19.73C32.9128 19.73 33.3878 19.625 33.8278 19.415C34.2778 19.195 34.7128 18.9 35.1328 18.53V7.445H39.7828ZM47.2922 9.845C47.7722 9.005 48.3222 8.345 48.9422 7.865C49.5722 7.385 50.2922 7.145 51.1022 7.145C51.8022 7.145 52.3722 7.31 52.8122 7.64L52.5122 11.06C52.4622 11.28 52.3772 11.43 52.2572 11.51C52.1472 11.59 51.9922 11.63 51.7922 11.63C51.7122 11.63 51.6072 11.625 51.4772 11.615C51.3472 11.605 51.2122 11.595 51.0722 11.585C50.9322 11.565 50.7872 11.55 50.6372 11.54C50.4972 11.52 50.3672 11.51 50.2472 11.51C49.5672 11.51 49.0222 11.69 48.6122 12.05C48.2122 12.41 47.8722 12.91 47.5922 13.55V23H42.9422V7.445H45.7022C45.9322 7.445 46.1222 7.465 46.2722 7.505C46.4322 7.545 46.5622 7.61 46.6622 7.7C46.7722 7.78 46.8522 7.89 46.9022 8.03C46.9622 8.17 47.0122 8.34 47.0522 8.54L47.2922 9.845ZM73.3404 5.585C73.1904 5.825 73.0304 6.005 72.8604 6.125C72.7004 6.245 72.4904 6.305 72.2304 6.305C72.0004 6.305 71.7504 6.235 71.4804 6.095C71.2204 5.945 70.9204 5.78 70.5804 5.6C70.2504 5.42 69.8704 5.26 69.4404 5.12C69.0104 4.97 68.5204 4.895 67.9704 4.895C67.0204 4.895 66.3104 5.1 65.8404 5.51C65.3804 5.91 65.1504 6.455 65.1504 7.145C65.1504 7.585 65.2904 7.95 65.5704 8.24C65.8504 8.53 66.2154 8.78 66.6654 8.99C67.1254 9.2 67.6454 9.395 68.2254 9.575C68.8154 9.745 69.4154 9.94 70.0254 10.16C70.6354 10.37 71.2304 10.62 71.8104 10.91C72.4004 11.2 72.9204 11.57 73.3704 12.02C73.8304 12.47 74.2004 13.02 74.4804 13.67C74.7604 14.31 74.9004 15.085 74.9004 15.995C74.9004 17.005 74.7254 17.95 74.3754 18.83C74.0254 19.71 73.5154 20.48 72.8454 21.14C72.1854 21.79 71.3654 22.305 70.3854 22.685C69.4154 23.055 68.3104 23.24 67.0704 23.24C66.3904 23.24 65.6954 23.17 64.9854 23.03C64.2854 22.89 63.6054 22.695 62.9454 22.445C62.2854 22.185 61.6654 21.88 61.0854 21.53C60.5054 21.18 60.0004 20.79 59.5704 20.36L61.0704 17.99C61.1904 17.82 61.3454 17.68 61.5354 17.57C61.7354 17.45 61.9504 17.39 62.1804 17.39C62.4804 17.39 62.7804 17.485 63.0804 17.675C63.3904 17.865 63.7354 18.075 64.1154 18.305C64.5054 18.535 64.9504 18.745 65.4504 18.935C65.9504 19.125 66.5404 19.22 67.2204 19.22C68.1404 19.22 68.8554 19.02 69.3654 18.62C69.8754 18.21 70.1304 17.565 70.1304 16.685C70.1304 16.175 69.9904 15.76 69.7104 15.44C69.4304 15.12 69.0604 14.855 68.6004 14.645C68.1504 14.435 67.6354 14.25 67.0554 14.09C66.4754 13.93 65.8804 13.755 65.2704 13.565C64.6604 13.365 64.0654 13.125 63.4854 12.845C62.9054 12.555 62.3854 12.18 61.9254 11.72C61.4754 11.25 61.1104 10.67 60.8304 9.98C60.5504 9.28 60.4104 8.42 60.4104 7.4C60.4104 6.58 60.5754 5.78 60.9054 5C61.2354 4.22 61.7204 3.525 62.3604 2.915C63.0004 2.305 63.7854 1.82 64.7154 1.46C65.6454 1.09 66.7104 0.904999 67.9104 0.904999C68.5804 0.904999 69.2304 0.959999 69.8604 1.07C70.5004 1.17 71.1054 1.325 71.6754 1.535C72.2454 1.735 72.7754 1.98 73.2654 2.27C73.7654 2.55 74.2104 2.87 74.6004 3.23L73.3404 5.585ZM87.0117 13.355C87.0117 12.985 86.9617 12.625 86.8617 12.275C86.7717 11.925 86.6167 11.615 86.3967 11.345C86.1867 11.065 85.9067 10.84 85.5567 10.67C85.2067 10.5 84.7817 10.415 84.2817 10.415C83.4017 10.415 82.7117 10.67 82.2117 11.18C81.7117 11.68 81.3817 12.405 81.2217 13.355H87.0117ZM81.1617 16.055C81.3117 17.355 81.7067 18.3 82.3467 18.89C82.9867 19.47 83.8117 19.76 84.8217 19.76C85.3617 19.76 85.8267 19.695 86.2167 19.565C86.6067 19.435 86.9517 19.29 87.2517 19.13C87.5617 18.97 87.8417 18.825 88.0917 18.695C88.3517 18.565 88.6217 18.5 88.9017 18.5C89.2717 18.5 89.5517 18.635 89.7417 18.905L91.0917 20.57C90.6117 21.12 90.0917 21.57 89.5317 21.92C88.9817 22.26 88.4117 22.53 87.8217 22.73C87.2417 22.92 86.6567 23.05 86.0667 23.12C85.4867 23.2 84.9317 23.24 84.4017 23.24C83.3117 23.24 82.2867 23.065 81.3267 22.715C80.3767 22.355 79.5417 21.825 78.8217 21.125C78.1117 20.425 77.5467 19.555 77.1267 18.515C76.7167 17.475 76.5117 16.265 76.5117 14.885C76.5117 13.845 76.6867 12.86 77.0367 11.93C77.3967 11 77.9067 10.185 78.5667 9.485C79.2367 8.785 80.0417 8.23 80.9817 7.82C81.9317 7.41 83.0017 7.205 84.1917 7.205C85.2217 7.205 86.1617 7.365 87.0117 7.685C87.8717 8.005 88.6067 8.47 89.2167 9.08C89.8367 9.69 90.3167 10.44 90.6567 11.33C91.0067 12.21 91.1817 13.21 91.1817 14.33C91.1817 14.68 91.1667 14.965 91.1367 15.185C91.1067 15.405 91.0517 15.58 90.9717 15.71C90.8917 15.84 90.7817 15.93 90.6417 15.98C90.5117 16.03 90.3417 16.055 90.1317 16.055H81.1617ZM97.8586 9.845C98.3386 9.005 98.8886 8.345 99.5086 7.865C100.139 7.385 100.859 7.145 101.669 7.145C102.369 7.145 102.939 7.31 103.379 7.64L103.079 11.06C103.029 11.28 102.944 11.43 102.824 11.51C102.714 11.59 102.559 11.63 102.359 11.63C102.279 11.63 102.174 11.625 102.044 11.615C101.914 11.605 101.779 11.595 101.639 11.585C101.499 11.565 101.354 11.55 101.204 11.54C101.064 11.52 100.934 11.51 100.814 11.51C100.134 11.51 99.5886 11.69 99.1786 12.05C98.7786 12.41 98.4386 12.91 98.1586 13.55V23H93.5086V7.445H96.2686C96.4986 7.445 96.6886 7.465 96.8386 7.505C96.9986 7.545 97.1286 7.61 97.2286 7.7C97.3386 7.78 97.4186 7.89 97.4686 8.03C97.5286 8.17 97.5786 8.34 97.6186 8.54L97.8586 9.845ZM119.619 7.445L113.589 23H109.359L103.329 7.445H107.199C107.529 7.445 107.804 7.525 108.024 7.685C108.254 7.835 108.409 8.025 108.489 8.255L110.649 15.23C110.839 15.8 111.004 16.355 111.144 16.895C111.294 17.435 111.424 17.975 111.534 18.515C111.754 17.435 112.059 16.34 112.449 15.23L114.699 8.255C114.779 8.025 114.929 7.835 115.149 7.685C115.369 7.525 115.629 7.445 115.929 7.445H119.619ZM125.891 7.445V23H121.241V7.445H125.891ZM126.371 3.185C126.371 3.555 126.296 3.905 126.146 4.235C125.996 4.555 125.791 4.84 125.531 5.09C125.271 5.33 124.966 5.525 124.616 5.675C124.276 5.815 123.911 5.885 123.521 5.885C123.141 5.885 122.786 5.815 122.456 5.675C122.126 5.525 121.831 5.33 121.571 5.09C121.321 4.84 121.121 4.555 120.971 4.235C120.831 3.905 120.761 3.555 120.761 3.185C120.761 2.805 120.831 2.45 120.971 2.12C121.121 1.79 121.321 1.5 121.571 1.25C121.831 1 122.126 0.804999 122.456 0.664999C122.786 0.524999 123.141 0.455 123.521 0.455C123.911 0.455 124.276 0.524999 124.616 0.664999C124.966 0.804999 125.271 1 125.531 1.25C125.791 1.5 125.996 1.79 126.146 2.12C126.296 2.45 126.371 2.805 126.371 3.185ZM140.564 11.135C140.424 11.305 140.289 11.44 140.159 11.54C140.029 11.64 139.844 11.69 139.604 11.69C139.374 11.69 139.164 11.635 138.974 11.525C138.794 11.415 138.589 11.295 138.359 11.165C138.129 11.025 137.859 10.9 137.549 10.79C137.239 10.68 136.854 10.625 136.394 10.625C135.824 10.625 135.329 10.73 134.909 10.94C134.499 11.15 134.159 11.45 133.889 11.84C133.619 12.23 133.419 12.71 133.289 13.28C133.159 13.84 133.094 14.475 133.094 15.185C133.094 16.675 133.379 17.82 133.949 18.62C134.529 19.42 135.324 19.82 136.334 19.82C136.874 19.82 137.299 19.755 137.609 19.625C137.929 19.485 138.199 19.335 138.419 19.175C138.639 19.005 138.839 18.85 139.019 18.71C139.209 18.57 139.444 18.5 139.724 18.5C140.094 18.5 140.374 18.635 140.564 18.905L141.914 20.57C141.434 21.12 140.929 21.57 140.399 21.92C139.869 22.26 139.324 22.53 138.764 22.73C138.214 22.92 137.659 23.05 137.099 23.12C136.539 23.2 135.994 23.24 135.464 23.24C134.514 23.24 133.604 23.06 132.734 22.7C131.874 22.34 131.114 21.82 130.454 21.14C129.804 20.45 129.284 19.605 128.894 18.605C128.514 17.605 128.324 16.465 128.324 15.185C128.324 14.065 128.489 13.02 128.819 12.05C129.159 11.07 129.654 10.225 130.304 9.515C130.964 8.795 131.774 8.23 132.734 7.82C133.704 7.41 134.824 7.205 136.094 7.205C137.314 7.205 138.384 7.4 139.304 7.79C140.224 8.18 141.054 8.75 141.794 9.5L140.564 11.135ZM153.135 13.355C153.135 12.985 153.085 12.625 152.985 12.275C152.895 11.925 152.74 11.615 152.52 11.345C152.31 11.065 152.03 10.84 151.68 10.67C151.33 10.5 150.905 10.415 150.405 10.415C149.525 10.415 148.835 10.67 148.335 11.18C147.835 11.68 147.505 12.405 147.345 13.355H153.135ZM147.285 16.055C147.435 17.355 147.83 18.3 148.47 18.89C149.11 19.47 149.935 19.76 150.945 19.76C151.485 19.76 151.95 19.695 152.34 19.565C152.73 19.435 153.075 19.29 153.375 19.13C153.685 18.97 153.965 18.825 154.215 18.695C154.475 18.565 154.745 18.5 155.025 18.5C155.395 18.5 155.675 18.635 155.865 18.905L157.215 20.57C156.735 21.12 156.215 21.57 155.655 21.92C155.105 22.26 154.535 22.53 153.945 22.73C153.365 22.92 152.78 23.05 152.19 23.12C151.61 23.2 151.055 23.24 150.525 23.24C149.435 23.24 148.41 23.065 147.45 22.715C146.5 22.355 145.665 21.825 144.945 21.125C144.235 20.425 143.67 19.555 143.25 18.515C142.84 17.475 142.635 16.265 142.635 14.885C142.635 13.845 142.81 12.86 143.16 11.93C143.52 11 144.03 10.185 144.69 9.485C145.36 8.785 146.165 8.23 147.105 7.82C148.055 7.41 149.125 7.205 150.315 7.205C151.345 7.205 152.285 7.365 153.135 7.685C153.995 8.005 154.73 8.47 155.34 9.08C155.96 9.69 156.44 10.44 156.78 11.33C157.13 12.21 157.305 13.21 157.305 14.33C157.305 14.68 157.29 14.965 157.26 15.185C157.23 15.405 157.175 15.58 157.095 15.71C157.015 15.84 156.905 15.93 156.765 15.98C156.635 16.03 156.465 16.055 156.255 16.055H147.285ZM169.517 10.85C169.397 11.04 169.267 11.175 169.127 11.255C168.997 11.335 168.827 11.375 168.617 11.375C168.397 11.375 168.177 11.33 167.957 11.24C167.737 11.14 167.497 11.035 167.237 10.925C166.987 10.815 166.702 10.715 166.382 10.625C166.062 10.525 165.697 10.475 165.287 10.475C164.697 10.475 164.242 10.59 163.922 10.82C163.612 11.04 163.457 11.35 163.457 11.75C163.457 12.04 163.557 12.28 163.757 12.47C163.967 12.66 164.242 12.83 164.582 12.98C164.922 13.12 165.307 13.255 165.737 13.385C166.167 13.515 166.607 13.66 167.057 13.82C167.507 13.98 167.947 14.17 168.377 14.39C168.807 14.6 169.192 14.865 169.532 15.185C169.872 15.495 170.142 15.875 170.342 16.325C170.552 16.775 170.657 17.315 170.657 17.945C170.657 18.715 170.517 19.425 170.237 20.075C169.957 20.725 169.537 21.285 168.977 21.755C168.427 22.225 167.742 22.59 166.922 22.85C166.112 23.11 165.177 23.24 164.117 23.24C163.587 23.24 163.057 23.19 162.527 23.09C161.997 22.99 161.482 22.855 160.982 22.685C160.492 22.515 160.037 22.315 159.617 22.085C159.197 21.845 158.837 21.59 158.537 21.32L159.617 19.61C159.737 19.41 159.887 19.255 160.067 19.145C160.257 19.025 160.497 18.965 160.787 18.965C161.057 18.965 161.297 19.025 161.507 19.145C161.727 19.265 161.962 19.395 162.212 19.535C162.462 19.675 162.752 19.805 163.082 19.925C163.422 20.045 163.847 20.105 164.357 20.105C164.717 20.105 165.022 20.07 165.272 20C165.522 19.92 165.722 19.815 165.872 19.685C166.022 19.555 166.132 19.41 166.202 19.25C166.272 19.09 166.307 18.925 166.307 18.755C166.307 18.445 166.202 18.19 165.992 17.99C165.782 17.79 165.507 17.62 165.167 17.48C164.827 17.33 164.437 17.195 163.997 17.075C163.567 16.945 163.127 16.8 162.677 16.64C162.227 16.48 161.782 16.29 161.342 16.07C160.912 15.84 160.527 15.555 160.187 15.215C159.847 14.865 159.572 14.44 159.362 13.94C159.152 13.44 159.047 12.835 159.047 12.125C159.047 11.465 159.172 10.84 159.422 10.25C159.682 9.65 160.067 9.125 160.577 8.675C161.087 8.225 161.727 7.87 162.497 7.61C163.267 7.34 164.167 7.205 165.197 7.205C165.757 7.205 166.297 7.255 166.817 7.355C167.347 7.455 167.842 7.595 168.302 7.775C168.762 7.955 169.182 8.17 169.562 8.42C169.942 8.66 170.277 8.925 170.567 9.215L169.517 10.85Z" fill="#666D89"/>
</svg>
