<svg width="117" height="24" viewBox="0 0 117 24" fill="none" xmlns="http://www.w3.org/2000/svg">
<path d="M7.825 11.87C9.145 11.87 10.095 11.555 10.675 10.925C11.255 10.295 11.545 9.415 11.545 8.285C11.545 7.785 11.47 7.33 11.32 6.92C11.17 6.51 10.94 6.16 10.63 5.87C10.33 5.57 9.945 5.34 9.475 5.18C9.015 5.02 8.465 4.94 7.825 4.94H5.185V11.87H7.825ZM7.825 1.145C9.365 1.145 10.685 1.33 11.785 1.7C12.895 2.06 13.805 2.56 14.515 3.2C15.235 3.84 15.765 4.595 16.105 5.465C16.445 6.335 16.615 7.275 16.615 8.285C16.615 9.375 16.44 10.375 16.09 11.285C15.74 12.195 15.205 12.975 14.485 13.625C13.765 14.275 12.85 14.785 11.74 15.155C10.64 15.515 9.335 15.695 7.825 15.695H5.185V23H0.115V1.145H7.825ZM25.202 7.205C26.382 7.205 27.457 7.39 28.427 7.76C29.397 8.13 30.227 8.66 30.917 9.35C31.617 10.04 32.157 10.88 32.537 11.87C32.927 12.85 33.122 13.955 33.122 15.185C33.122 16.425 32.927 17.545 32.537 18.545C32.157 19.535 31.617 20.38 30.917 21.08C30.227 21.77 29.397 22.305 28.427 22.685C27.457 23.055 26.382 23.24 25.202 23.24C24.012 23.24 22.927 23.055 21.947 22.685C20.977 22.305 20.137 21.77 19.427 21.08C18.727 20.38 18.182 19.535 17.792 18.545C17.412 17.545 17.222 16.425 17.222 15.185C17.222 13.955 17.412 12.85 17.792 11.87C18.182 10.88 18.727 10.04 19.427 9.35C20.137 8.66 20.977 8.13 21.947 7.76C22.927 7.39 24.012 7.205 25.202 7.205ZM25.202 19.79C26.272 19.79 27.057 19.415 27.557 18.665C28.067 17.905 28.322 16.755 28.322 15.215C28.322 13.675 28.067 12.53 27.557 11.78C27.057 11.03 26.272 10.655 25.202 10.655C24.102 10.655 23.297 11.03 22.787 11.78C22.277 12.53 22.022 13.675 22.022 15.215C22.022 16.755 22.277 17.905 22.787 18.665C23.297 19.415 24.102 19.79 25.202 19.79ZM39.8137 9.845C40.2937 9.005 40.8437 8.345 41.4637 7.865C42.0937 7.385 42.8137 7.145 43.6237 7.145C44.3237 7.145 44.8937 7.31 45.3337 7.64L45.0337 11.06C44.9837 11.28 44.8987 11.43 44.7787 11.51C44.6687 11.59 44.5137 11.63 44.3137 11.63C44.2337 11.63 44.1287 11.625 43.9987 11.615C43.8687 11.605 43.7337 11.595 43.5937 11.585C43.4537 11.565 43.3087 11.55 43.1587 11.54C43.0187 11.52 42.8887 11.51 42.7687 11.51C42.0887 11.51 41.5437 11.69 41.1337 12.05C40.7337 12.41 40.3937 12.91 40.1137 13.55V23H35.4637V7.445H38.2237C38.4537 7.445 38.6437 7.465 38.7937 7.505C38.9537 7.545 39.0837 7.61 39.1837 7.7C39.2937 7.78 39.3737 7.89 39.4237 8.03C39.4837 8.17 39.5337 8.34 39.5737 8.54L39.8137 9.845ZM58.5738 23V10.655H52.5738V18.38C52.5738 18.74 52.6588 19.04 52.8288 19.28C53.0088 19.51 53.2638 19.625 53.5938 19.625C53.7638 19.625 53.9038 19.61 54.0138 19.58C54.1338 19.54 54.2338 19.5 54.3138 19.46C54.4038 19.41 54.4838 19.37 54.5538 19.34C54.6338 19.3 54.7238 19.28 54.8238 19.28C54.9638 19.28 55.0738 19.315 55.1538 19.385C55.2438 19.445 55.3338 19.545 55.4238 19.685L56.8338 21.89C56.2338 22.34 55.5588 22.68 54.8088 22.91C54.0588 23.13 53.2838 23.24 52.4838 23.24C51.7438 23.24 51.0888 23.135 50.5188 22.925C49.9588 22.705 49.4838 22.4 49.0938 22.01C48.7138 21.61 48.4238 21.13 48.2238 20.57C48.0238 20.01 47.9238 19.385 47.9238 18.695V10.655H46.6038C46.3638 10.655 46.1588 10.58 45.9888 10.43C45.8188 10.27 45.7338 10.04 45.7338 9.74V7.925L48.2088 7.445L49.1238 3.65C49.2438 3.17 49.5838 2.93 50.1438 2.93H52.5738V7.475H58.5738V6.59C58.5738 5.7 58.7138 4.895 58.9938 4.175C59.2838 3.455 59.6938 2.84 60.2238 2.33C60.7638 1.82 61.4188 1.425 62.1888 1.145C62.9588 0.865 63.8338 0.725 64.8138 0.725C65.1938 0.725 65.5438 0.75 65.8638 0.8C66.1838 0.839999 66.5188 0.909999 66.8688 1.01L66.7788 3.275C66.7688 3.435 66.7288 3.57 66.6588 3.68C66.5888 3.78 66.4938 3.865 66.3738 3.935C66.2638 3.995 66.1438 4.04 66.0138 4.07C65.8838 4.1 65.7538 4.115 65.6238 4.115C65.2138 4.115 64.8488 4.155 64.5288 4.235C64.2088 4.315 63.9388 4.46 63.7188 4.67C63.5088 4.87 63.3488 5.14 63.2388 5.48C63.1288 5.81 63.0738 6.23 63.0738 6.74V7.475H66.7188V10.655H63.2238V23H58.5738ZM75.2704 7.205C76.4504 7.205 77.5254 7.39 78.4954 7.76C79.4654 8.13 80.2954 8.66 80.9854 9.35C81.6854 10.04 82.2254 10.88 82.6054 11.87C82.9954 12.85 83.1904 13.955 83.1904 15.185C83.1904 16.425 82.9954 17.545 82.6054 18.545C82.2254 19.535 81.6854 20.38 80.9854 21.08C80.2954 21.77 79.4654 22.305 78.4954 22.685C77.5254 23.055 76.4504 23.24 75.2704 23.24C74.0804 23.24 72.9954 23.055 72.0154 22.685C71.0454 22.305 70.2054 21.77 69.4954 21.08C68.7954 20.38 68.2504 19.535 67.8604 18.545C67.4804 17.545 67.2904 16.425 67.2904 15.185C67.2904 13.955 67.4804 12.85 67.8604 11.87C68.2504 10.88 68.7954 10.04 69.4954 9.35C70.2054 8.66 71.0454 8.13 72.0154 7.76C72.9954 7.39 74.0804 7.205 75.2704 7.205ZM75.2704 19.79C76.3404 19.79 77.1254 19.415 77.6254 18.665C78.1354 17.905 78.3904 16.755 78.3904 15.215C78.3904 13.675 78.1354 12.53 77.6254 11.78C77.1254 11.03 76.3404 10.655 75.2704 10.655C74.1704 10.655 73.3654 11.03 72.8554 11.78C72.3454 12.53 72.0904 13.675 72.0904 15.215C72.0904 16.755 72.3454 17.905 72.8554 18.665C73.3654 19.415 74.1704 19.79 75.2704 19.79ZM90.182 0.544999V23H85.532V0.544999H90.182ZM98.08 7.445V23H93.43V7.445H98.08ZM98.56 3.185C98.56 3.555 98.485 3.905 98.335 4.235C98.185 4.555 97.98 4.84 97.72 5.09C97.46 5.33 97.155 5.525 96.805 5.675C96.465 5.815 96.1 5.885 95.71 5.885C95.33 5.885 94.975 5.815 94.645 5.675C94.315 5.525 94.02 5.33 93.76 5.09C93.51 4.84 93.31 4.555 93.16 4.235C93.02 3.905 92.95 3.555 92.95 3.185C92.95 2.805 93.02 2.45 93.16 2.12C93.31 1.79 93.51 1.5 93.76 1.25C94.02 1 94.315 0.804999 94.645 0.664999C94.975 0.524999 95.33 0.455 95.71 0.455C96.1 0.455 96.465 0.524999 96.805 0.664999C97.155 0.804999 97.46 1 97.72 1.25C97.98 1.5 98.185 1.79 98.335 2.12C98.485 2.45 98.56 2.805 98.56 3.185ZM108.493 7.205C109.673 7.205 110.748 7.39 111.718 7.76C112.688 8.13 113.518 8.66 114.208 9.35C114.908 10.04 115.448 10.88 115.828 11.87C116.218 12.85 116.413 13.955 116.413 15.185C116.413 16.425 116.218 17.545 115.828 18.545C115.448 19.535 114.908 20.38 114.208 21.08C113.518 21.77 112.688 22.305 111.718 22.685C110.748 23.055 109.673 23.24 108.493 23.24C107.303 23.24 106.218 23.055 105.238 22.685C104.268 22.305 103.428 21.77 102.718 21.08C102.018 20.38 101.473 19.535 101.083 18.545C100.703 17.545 100.513 16.425 100.513 15.185C100.513 13.955 100.703 12.85 101.083 11.87C101.473 10.88 102.018 10.04 102.718 9.35C103.428 8.66 104.268 8.13 105.238 7.76C106.218 7.39 107.303 7.205 108.493 7.205ZM108.493 19.79C109.563 19.79 110.348 19.415 110.848 18.665C111.358 17.905 111.613 16.755 111.613 15.215C111.613 13.675 111.358 12.53 110.848 11.78C110.348 11.03 109.563 10.655 108.493 10.655C107.393 10.655 106.588 11.03 106.078 11.78C105.568 12.53 105.313 13.675 105.313 15.215C105.313 16.755 105.568 17.905 106.078 18.665C106.588 19.415 107.393 19.79 108.493 19.79Z" fill="#666D89"/>
</svg>
