<svg width="164" height="28" viewBox="0 0 164 28" fill="none" xmlns="http://www.w3.org/2000/svg">
<path d="M12.615 11.6701H20.385V20.8951C19.265 21.7151 18.07 22.3101 16.8 22.6801C15.54 23.0501 14.22 23.2351 12.84 23.2351C11.04 23.2351 9.4 22.9551 7.92 22.3951C6.45 21.8251 5.19 21.0451 4.14 20.0551C3.09 19.0551 2.28 17.8751 1.71 16.5151C1.14 15.1451 0.855 13.6601 0.855 12.0601C0.855 10.4301 1.125 8.93512 1.665 7.57512C2.205 6.20512 2.975 5.02512 3.975 4.03512C4.985 3.04512 6.2 2.27512 7.62 1.72512C9.05 1.17512 10.645 0.900116 12.405 0.900116C13.315 0.900116 14.17 0.975116 14.97 1.12512C15.77 1.27512 16.505 1.48012 17.175 1.74012C17.855 2.00012 18.475 2.31012 19.035 2.67012C19.595 3.03012 20.095 3.42012 20.535 3.84012L19.065 6.07512C18.835 6.42512 18.535 6.64012 18.165 6.72012C17.805 6.80012 17.415 6.71012 16.995 6.45012C16.595 6.21012 16.215 6.00512 15.855 5.83512C15.505 5.65512 15.145 5.51012 14.775 5.40012C14.405 5.29012 14.015 5.21012 13.605 5.16012C13.195 5.11012 12.735 5.08512 12.225 5.08512C11.275 5.08512 10.42 5.25512 9.66 5.59512C8.9 5.92512 8.25 6.39512 7.71 7.00512C7.18 7.61512 6.77 8.35012 6.48 9.21012C6.19 10.0601 6.045 11.0101 6.045 12.0601C6.045 13.2201 6.205 14.2501 6.525 15.1501C6.845 16.0501 7.295 16.8101 7.875 17.4301C8.465 18.0501 9.165 18.5251 9.975 18.8551C10.795 19.1751 11.7 19.3351 12.69 19.3351C13.3 19.3351 13.85 19.2751 14.34 19.1551C14.84 19.0351 15.325 18.8751 15.795 18.6751V15.3601H13.635C13.315 15.3601 13.065 15.2751 12.885 15.1051C12.705 14.9351 12.615 14.7201 12.615 14.4601V11.6701ZM32.7539 13.3501C32.7539 12.9801 32.7039 12.6201 32.6039 12.2701C32.5139 11.9201 32.3589 11.6101 32.1389 11.3401C31.9289 11.0601 31.6489 10.8351 31.2989 10.6651C30.9489 10.4951 30.5239 10.4101 30.0239 10.4101C29.1439 10.4101 28.4539 10.6651 27.9539 11.1751C27.4539 11.6751 27.1239 12.4001 26.9639 13.3501H32.7539ZM26.9039 16.0501C27.0539 17.3501 27.4489 18.2951 28.0889 18.8851C28.7289 19.4651 29.5539 19.7551 30.5639 19.7551C31.1039 19.7551 31.5689 19.6901 31.9589 19.5601C32.3489 19.4301 32.6939 19.2851 32.9939 19.1251C33.3039 18.9651 33.5839 18.8201 33.8339 18.6901C34.0939 18.5601 34.3639 18.4951 34.6439 18.4951C35.0139 18.4951 35.2939 18.6301 35.4839 18.9001L36.8339 20.5651C36.3539 21.1151 35.8339 21.5651 35.2739 21.9151C34.7239 22.2551 34.1539 22.5251 33.5639 22.7251C32.9839 22.9151 32.3989 23.0451 31.8089 23.1151C31.2289 23.1951 30.6739 23.2351 30.1439 23.2351C29.0539 23.2351 28.0289 23.0601 27.0689 22.7101C26.1189 22.3501 25.2839 21.8201 24.5639 21.1201C23.8539 20.4201 23.2889 19.5501 22.8689 18.5101C22.4589 17.4701 22.2539 16.2601 22.2539 14.8801C22.2539 13.8401 22.4289 12.8551 22.7789 11.9251C23.1389 10.9951 23.6489 10.1801 24.3089 9.48012C24.9789 8.78012 25.7839 8.22512 26.7239 7.81512C27.6739 7.40512 28.7439 7.20012 29.9339 7.20012C30.9639 7.20012 31.9039 7.36012 32.7539 7.68012C33.6139 8.00012 34.3489 8.46512 34.9589 9.07512C35.5789 9.68512 36.0589 10.4351 36.3989 11.3251C36.7489 12.2051 36.9239 13.2051 36.9239 14.3251C36.9239 14.6751 36.9089 14.9601 36.8789 15.1801C36.8489 15.4001 36.7939 15.5751 36.7139 15.7051C36.6339 15.8351 36.5239 15.9251 36.3839 15.9751C36.2539 16.0251 36.0839 16.0501 35.8739 16.0501H26.9039ZM44.6107 23.2351C43.8707 23.2351 43.2157 23.1301 42.6457 22.9201C42.0857 22.7001 41.6107 22.3951 41.2207 22.0051C40.8407 21.6051 40.5507 21.1251 40.3507 20.5651C40.1507 20.0051 40.0507 19.3801 40.0507 18.6901V10.6501H38.7307C38.4907 10.6501 38.2857 10.5751 38.1157 10.4251C37.9457 10.2651 37.8607 10.0351 37.8607 9.73512V7.92012L40.3357 7.44012L41.2507 3.64512C41.3707 3.16512 41.7107 2.92512 42.2707 2.92512H44.7007V7.47012H48.5557V10.6501H44.7007V18.3751C44.7007 18.7351 44.7857 19.0351 44.9557 19.2751C45.1357 19.5051 45.3907 19.6201 45.7207 19.6201C45.8907 19.6201 46.0307 19.6051 46.1407 19.5751C46.2607 19.5351 46.3607 19.4951 46.4407 19.4551C46.5307 19.4051 46.6107 19.3651 46.6807 19.3351C46.7607 19.2951 46.8507 19.2751 46.9507 19.2751C47.0907 19.2751 47.2007 19.3101 47.2807 19.3801C47.3707 19.4401 47.4607 19.5401 47.5507 19.6801L48.9607 21.8851C48.3607 22.3351 47.6857 22.6751 46.9357 22.9051C46.1857 23.1251 45.4107 23.2351 44.6107 23.2351ZM65.5277 16.6651C64.5977 16.7051 63.8327 16.7851 63.2327 16.9051C62.6327 17.0251 62.1577 17.1751 61.8077 17.3551C61.4577 17.5351 61.2127 17.7401 61.0727 17.9701C60.9427 18.2001 60.8777 18.4501 60.8777 18.7201C60.8777 19.2501 61.0227 19.6251 61.3127 19.8451C61.6027 20.0551 62.0277 20.1601 62.5877 20.1601C63.1877 20.1601 63.7127 20.0551 64.1627 19.8451C64.6127 19.6351 65.0677 19.2951 65.5277 18.8251V16.6651ZM57.1577 9.60012C58.0977 8.77012 59.1377 8.15512 60.2777 7.75512C61.4277 7.34512 62.6577 7.14012 63.9677 7.14012C64.9077 7.14012 65.7527 7.29512 66.5027 7.60512C67.2627 7.90512 67.9027 8.33012 68.4227 8.88012C68.9527 9.42012 69.3577 10.0651 69.6377 10.8151C69.9177 11.5651 70.0577 12.3851 70.0577 13.2751V22.9951H67.9277C67.4877 22.9951 67.1527 22.9351 66.9227 22.8151C66.7027 22.6951 66.5177 22.4451 66.3677 22.0651L66.0377 21.2101C65.6477 21.5401 65.2727 21.8301 64.9127 22.0801C64.5527 22.3301 64.1777 22.5451 63.7877 22.7251C63.4077 22.8951 62.9977 23.0201 62.5577 23.1001C62.1277 23.1901 61.6477 23.2351 61.1177 23.2351C60.4077 23.2351 59.7627 23.1451 59.1827 22.9651C58.6027 22.7751 58.1077 22.5001 57.6977 22.1401C57.2977 21.7801 56.9877 21.3351 56.7677 20.8051C56.5477 20.2651 56.4377 19.6451 56.4377 18.9451C56.4377 18.3851 56.5777 17.8201 56.8577 17.2501C57.1377 16.6701 57.6227 16.1451 58.3127 15.6751C59.0027 15.1951 59.9327 14.7951 61.1027 14.4751C62.2727 14.1551 63.7477 13.9751 65.5277 13.9351V13.2751C65.5277 12.3651 65.3377 11.7101 64.9577 11.3101C64.5877 10.9001 64.0577 10.6951 63.3677 10.6951C62.8177 10.6951 62.3677 10.7551 62.0177 10.8751C61.6677 10.9951 61.3527 11.1301 61.0727 11.2801C60.8027 11.4301 60.5377 11.5651 60.2777 11.6851C60.0177 11.8051 59.7077 11.8651 59.3477 11.8651C59.0277 11.8651 58.7577 11.7851 58.5377 11.6251C58.3177 11.4651 58.1377 11.2751 57.9977 11.0551L57.1577 9.60012ZM84.4584 12.0601C84.4584 13.1501 84.5984 14.1301 84.8784 15.0001C85.1584 15.8601 85.5584 16.5901 86.0784 17.1901C86.6084 17.7901 87.2534 18.2501 88.0134 18.5701C88.7834 18.8801 89.6584 19.0351 90.6384 19.0351C91.6084 19.0351 92.4734 18.8801 93.2334 18.5701C93.9934 18.2501 94.6334 17.7901 95.1534 17.1901C95.6834 16.5901 96.0884 15.8601 96.3684 15.0001C96.6484 14.1301 96.7884 13.1501 96.7884 12.0601C96.7884 10.9801 96.6484 10.0101 96.3684 9.15012C96.0884 8.28012 95.6834 7.54512 95.1534 6.94512C94.6334 6.34512 93.9934 5.88512 93.2334 5.56512C92.4734 5.24512 91.6084 5.08512 90.6384 5.08512C89.6584 5.08512 88.7834 5.24512 88.0134 5.56512C87.2534 5.88512 86.6084 6.34512 86.0784 6.94512C85.5584 7.54512 85.1584 8.28012 84.8784 9.15012C84.5984 10.0101 84.4584 10.9801 84.4584 12.0601ZM103.208 27.0901H99.0384C98.4384 27.0901 97.8984 27.0101 97.4184 26.8501C96.9484 26.7001 96.5084 26.4151 96.0984 25.9951L93.3834 22.9501C92.5334 23.1401 91.6184 23.2351 90.6384 23.2351C88.9384 23.2351 87.3884 22.9501 85.9884 22.3801C84.5884 21.8101 83.3884 21.0251 82.3884 20.0251C81.3984 19.0151 80.6284 17.8301 80.0784 16.4701C79.5384 15.1101 79.2684 13.6401 79.2684 12.0601C79.2684 10.4801 79.5384 9.01012 80.0784 7.65012C80.6284 6.29012 81.3984 5.11012 82.3884 4.11012C83.3884 3.11012 84.5884 2.32512 85.9884 1.75512C87.3884 1.18512 88.9384 0.900116 90.6384 0.900116C92.3384 0.900116 93.8834 1.19012 95.2734 1.77012C96.6734 2.34012 97.8684 3.12512 98.8584 4.12512C99.8484 5.12512 100.613 6.30512 101.153 7.66512C101.703 9.02512 101.978 10.4901 101.978 12.0601C101.978 13.0001 101.878 13.9051 101.678 14.7751C101.488 15.6351 101.208 16.4451 100.838 17.2051C100.478 17.9651 100.028 18.6701 99.4884 19.3201C98.9584 19.9701 98.3534 20.5451 97.6734 21.0451L103.208 27.0901ZM118.211 7.44012V22.9951H115.331C114.751 22.9951 114.371 22.7351 114.191 22.2151L113.921 21.3151C113.621 21.6051 113.311 21.8701 112.991 22.1101C112.671 22.3401 112.326 22.5401 111.956 22.7101C111.596 22.8701 111.201 22.9951 110.771 23.0851C110.351 23.1851 109.891 23.2351 109.391 23.2351C108.541 23.2351 107.786 23.0901 107.126 22.8001C106.476 22.5001 105.926 22.0851 105.476 21.5551C105.026 21.0251 104.686 20.4001 104.456 19.6801C104.226 18.9601 104.111 18.1701 104.111 17.3101V7.44012H108.761V17.3101C108.761 18.0801 108.936 18.6751 109.286 19.0951C109.636 19.5151 110.151 19.7251 110.831 19.7251C111.341 19.7251 111.816 19.6201 112.256 19.4101C112.706 19.1901 113.141 18.8951 113.561 18.5251V7.44012H118.211ZM128.54 7.20012C129.72 7.20012 130.795 7.38512 131.765 7.75512C132.735 8.12512 133.565 8.65512 134.255 9.34512C134.955 10.0351 135.495 10.8751 135.875 11.8651C136.265 12.8451 136.46 13.9501 136.46 15.1801C136.46 16.4201 136.265 17.5401 135.875 18.5401C135.495 19.5301 134.955 20.3751 134.255 21.0751C133.565 21.7651 132.735 22.3001 131.765 22.6801C130.795 23.0501 129.72 23.2351 128.54 23.2351C127.35 23.2351 126.265 23.0501 125.285 22.6801C124.315 22.3001 123.475 21.7651 122.765 21.0751C122.065 20.3751 121.52 19.5301 121.13 18.5401C120.75 17.5401 120.56 16.4201 120.56 15.1801C120.56 13.9501 120.75 12.8451 121.13 11.8651C121.52 10.8751 122.065 10.0351 122.765 9.34512C123.475 8.65512 124.315 8.12512 125.285 7.75512C126.265 7.38512 127.35 7.20012 128.54 7.20012ZM128.54 19.7851C129.61 19.7851 130.395 19.4101 130.895 18.6601C131.405 17.9001 131.66 16.7501 131.66 15.2101C131.66 13.6701 131.405 12.5251 130.895 11.7751C130.395 11.0251 129.61 10.6501 128.54 10.6501C127.44 10.6501 126.635 11.0251 126.125 11.7751C125.615 12.5251 125.36 13.6701 125.36 15.2101C125.36 16.7501 125.615 17.9001 126.125 18.6601C126.635 19.4101 127.44 19.7851 128.54 19.7851ZM144.044 23.2351C143.304 23.2351 142.649 23.1301 142.079 22.9201C141.519 22.7001 141.044 22.3951 140.654 22.0051C140.274 21.6051 139.984 21.1251 139.784 20.5651C139.584 20.0051 139.484 19.3801 139.484 18.6901V10.6501H138.164C137.924 10.6501 137.719 10.5751 137.549 10.4251C137.379 10.2651 137.294 10.0351 137.294 9.73512V7.92012L139.769 7.44012L140.684 3.64512C140.804 3.16512 141.144 2.92512 141.704 2.92512H144.134V7.47012H147.989V10.6501H144.134V18.3751C144.134 18.7351 144.219 19.0351 144.389 19.2751C144.569 19.5051 144.824 19.6201 145.154 19.6201C145.324 19.6201 145.464 19.6051 145.574 19.5751C145.694 19.5351 145.794 19.4951 145.874 19.4551C145.964 19.4051 146.044 19.3651 146.114 19.3351C146.194 19.2951 146.284 19.2751 146.384 19.2751C146.524 19.2751 146.634 19.3101 146.714 19.3801C146.804 19.4401 146.894 19.5401 146.984 19.6801L148.394 21.8851C147.794 22.3351 147.119 22.6751 146.369 22.9051C145.619 23.1251 144.844 23.2351 144.044 23.2351ZM159.521 13.3501C159.521 12.9801 159.471 12.6201 159.371 12.2701C159.281 11.9201 159.126 11.6101 158.906 11.3401C158.696 11.0601 158.416 10.8351 158.066 10.6651C157.716 10.4951 157.291 10.4101 156.791 10.4101C155.911 10.4101 155.221 10.6651 154.721 11.1751C154.221 11.6751 153.891 12.4001 153.731 13.3501H159.521ZM153.671 16.0501C153.821 17.3501 154.216 18.2951 154.856 18.8851C155.496 19.4651 156.321 19.7551 157.331 19.7551C157.871 19.7551 158.336 19.6901 158.726 19.5601C159.116 19.4301 159.461 19.2851 159.761 19.1251C160.071 18.9651 160.351 18.8201 160.601 18.6901C160.861 18.5601 161.131 18.4951 161.411 18.4951C161.781 18.4951 162.061 18.6301 162.251 18.9001L163.601 20.5651C163.121 21.1151 162.601 21.5651 162.041 21.9151C161.491 22.2551 160.921 22.5251 160.331 22.7251C159.751 22.9151 159.166 23.0451 158.576 23.1151C157.996 23.1951 157.441 23.2351 156.911 23.2351C155.821 23.2351 154.796 23.0601 153.836 22.7101C152.886 22.3501 152.051 21.8201 151.331 21.1201C150.621 20.4201 150.056 19.5501 149.636 18.5101C149.226 17.4701 149.021 16.2601 149.021 14.8801C149.021 13.8401 149.196 12.8551 149.546 11.9251C149.906 10.9951 150.416 10.1801 151.076 9.48012C151.746 8.78012 152.551 8.22512 153.491 7.81512C154.441 7.40512 155.511 7.20012 156.701 7.20012C157.731 7.20012 158.671 7.36012 159.521 7.68012C160.381 8.00012 161.116 8.46512 161.726 9.07512C162.346 9.68512 162.826 10.4351 163.166 11.3251C163.516 12.2051 163.691 13.2051 163.691 14.3251C163.691 14.6751 163.676 14.9601 163.646 15.1801C163.616 15.4001 163.561 15.5751 163.481 15.7051C163.401 15.8351 163.291 15.9251 163.151 15.9751C163.021 16.0251 162.851 16.0501 162.641 16.0501H153.671Z" fill="#F0D8D9"/>
</svg>
